<svg width="64" height="64" viewBox="0 0 64 64" fill="none" xmlns="http://www.w3.org/2000/svg" role="img" aria-label="Expansao Teologica">
  <defs>
    <linearGradient id="fbg" x1="0" y1="0" x2="64" y2="64" gradientUnits="userSpaceOnUse">
      <stop stop-color="#1B2A41"/>
      <stop offset="1" stop-color="#0F1B2D"/>
    </linearGradient>
  </defs>
  <rect width="64" height="64" rx="16" fill="url(#fbg)"/>
  <!-- Raios -->
  <g stroke="#C9A24B" stroke-width="3" stroke-linecap="round">
    <line x1="32" y1="16" x2="32" y2="9"/>
    <line x1="46" y1="20" x2="51" y2="15"/>
    <line x1="18" y1="20" x2="13" y2="15"/>
  </g>
  <!-- Livro aberto simplificado -->
  <path d="M32 26c-5-4-12-5-18-4-1.6.3-2.6 1.6-2.6 3.2V51c0 1.7 1.5 3 3.2 2.6 5.8-1.1 11.5 0 17.4 4" fill="#C9A24B"/>
  <path d="M32 26c5-4 12-5 18-4 1.6.3 2.6 1.6 2.6 3.2V51c0 1.7-1.5 3-3.2 2.6-5.8-1.1-11.5 0-17.4 4" fill="#FBFAF7"/>
  <rect x="30.5" y="24" width="3" height="33" rx="1.5" fill="#1B2A41"/>
</svg>
